<mxfile host="65bd71144e">
    <diagram id="Dc0ij24JYbNCD065eVW-" name="Page-1">
        <mxGraphModel dx="990" dy="560" grid="1" gridSize="10" guides="1" tooltips="1" connect="1" arrows="1" fold="1" page="1" pageScale="1" pageWidth="850" pageHeight="1100" background="#11CBFA" math="0" shadow="0">
            <root>
                <mxCell id="0"/>
                <mxCell id="1" parent="0"/>
                <mxCell id="2" value="&lt;div style=&quot;box-sizing:border-box;width:100%;background:#e4e4e4;padding:2px;&quot;&gt;&lt;font color=&quot;#0000ff&quot;&gt;&lt;b&gt;Section&lt;/b&gt;&lt;/font&gt;&lt;/div&gt;&lt;table style=&quot;width:100%;font-size:1em;&quot; cellpadding=&quot;2&quot; cellspacing=&quot;0&quot;&gt;&lt;tbody&gt;&lt;tr&gt;&lt;td&gt;&lt;font color=&quot;#0000ff&quot;&gt;PK&lt;/font&gt;&lt;/td&gt;&lt;td&gt;&lt;font color=&quot;#0000ff&quot;&gt;id&lt;/font&gt;&lt;/td&gt;&lt;/tr&gt;&lt;tr&gt;&lt;td&gt;&lt;span style=&quot;color: rgb(0, 0, 255);&quot;&gt;usernick&lt;/span&gt;&lt;br&gt;&lt;/td&gt;&lt;td&gt;&lt;font color=&quot;#0000ff&quot;&gt;string(20)&lt;/font&gt;&lt;/td&gt;&lt;/tr&gt;&lt;tr&gt;&lt;td&gt;&lt;font color=&quot;#0000ff&quot;&gt;sectionname&lt;/font&gt;&lt;/td&gt;&lt;td&gt;&lt;span style=&quot;color: rgb(0, 0, 255);&quot;&gt;string(20)&lt;/span&gt;&lt;br&gt;&lt;/td&gt;&lt;/tr&gt;&lt;tr&gt;&lt;td&gt;&lt;br&gt;&lt;/td&gt;&lt;td&gt;&lt;br&gt;&lt;/td&gt;&lt;/tr&gt;&lt;tr&gt;&lt;td&gt;&lt;br&gt;&lt;/td&gt;&lt;td&gt;&lt;br&gt;&lt;/td&gt;&lt;/tr&gt;&lt;/tbody&gt;&lt;/table&gt;" style="verticalAlign=top;align=left;overflow=fill;html=1;fillColor=#bac8d3;strokeColor=#23445d;" vertex="1" parent="1">
                    <mxGeometry x="65" y="180" width="180" height="80" as="geometry"/>
                </mxCell>
                <mxCell id="6" value="&lt;div style=&quot;box-sizing:border-box;width:100%;background:#e4e4e4;padding:2px;&quot;&gt;&lt;font color=&quot;#0000ff&quot;&gt;&lt;b&gt;Topic&lt;/b&gt;&lt;/font&gt;&lt;/div&gt;&lt;table style=&quot;width:100%;font-size:1em;&quot; cellpadding=&quot;2&quot; cellspacing=&quot;0&quot;&gt;&lt;tbody&gt;&lt;tr&gt;&lt;td&gt;&lt;font color=&quot;#0000ff&quot;&gt;PK&lt;/font&gt;&lt;/td&gt;&lt;td&gt;&lt;font color=&quot;#0000ff&quot;&gt;id&lt;/font&gt;&lt;/td&gt;&lt;/tr&gt;&lt;tr&gt;&lt;td&gt;&lt;font color=&quot;#0000ff&quot;&gt;FK&lt;/font&gt;&lt;/td&gt;&lt;td&gt;&lt;font color=&quot;#0000ff&quot;&gt;sectionID&lt;/font&gt;&lt;/td&gt;&lt;/tr&gt;&lt;tr&gt;&lt;td&gt;&lt;span style=&quot;color: rgb(0, 0, 255);&quot;&gt;usernick&lt;/span&gt;&lt;br&gt;&lt;/td&gt;&lt;td&gt;&lt;font color=&quot;#0000ff&quot;&gt;string(20)&lt;/font&gt;&lt;/td&gt;&lt;/tr&gt;&lt;tr&gt;&lt;td&gt;&lt;font color=&quot;#0000ff&quot;&gt;topicname&lt;/font&gt;&lt;/td&gt;&lt;td&gt;&lt;span style=&quot;color: rgb(0, 0, 255);&quot;&gt;string(20)&lt;/span&gt;&lt;br&gt;&lt;/td&gt;&lt;/tr&gt;&lt;tr&gt;&lt;td&gt;&lt;br&gt;&lt;/td&gt;&lt;td&gt;&lt;br&gt;&lt;/td&gt;&lt;/tr&gt;&lt;tr&gt;&lt;td&gt;&lt;br&gt;&lt;/td&gt;&lt;td&gt;&lt;br&gt;&lt;/td&gt;&lt;/tr&gt;&lt;/tbody&gt;&lt;/table&gt;" style="verticalAlign=top;align=left;overflow=fill;html=1;fillColor=#bac8d3;strokeColor=#23445d;" vertex="1" parent="1">
                    <mxGeometry x="315" y="320" width="180" height="100" as="geometry"/>
                </mxCell>
                <mxCell id="7" value="" style="endArrow=open;html=1;endSize=12;startArrow=diamondThin;startSize=14;startFill=0;edgeStyle=orthogonalEdgeStyle;fontColor=#0000FF;strokeColor=#000066;entryX=1;entryY=0.25;entryDx=0;entryDy=0;exitX=0.006;exitY=0.424;exitDx=0;exitDy=0;exitPerimeter=0;" edge="1" parent="1" source="6" target="2">
                    <mxGeometry x="0.1783" relative="1" as="geometry">
                        <mxPoint x="275" y="300" as="sourcePoint"/>
                        <mxPoint x="225" y="360" as="targetPoint"/>
                        <Array as="points">
                            <mxPoint x="285" y="362"/>
                            <mxPoint x="285" y="200"/>
                        </Array>
                        <mxPoint as="offset"/>
                    </mxGeometry>
                </mxCell>
                <mxCell id="8" value="&lt;font color=&quot;#ccffff&quot; style=&quot;font-size: 14px;&quot;&gt;0..n&lt;/font&gt;" style="edgeLabel;resizable=0;html=1;align=left;verticalAlign=top;fontColor=#0000FF;" connectable="0" vertex="1" parent="7">
                    <mxGeometry x="-1" relative="1" as="geometry">
                        <mxPoint x="-31" as="offset"/>
                    </mxGeometry>
                </mxCell>
                <mxCell id="9" value="&lt;font color=&quot;#ffffff&quot; style=&quot;font-size: 14px;&quot;&gt;1&lt;/font&gt;" style="edgeLabel;resizable=0;html=1;align=right;verticalAlign=top;fontColor=#0000FF;" connectable="0" vertex="1" parent="7">
                    <mxGeometry x="1" relative="1" as="geometry">
                        <mxPoint x="10" as="offset"/>
                    </mxGeometry>
                </mxCell>
                <mxCell id="16" value="&lt;div style=&quot;box-sizing:border-box;width:100%;background:#e4e4e4;padding:2px;&quot;&gt;&lt;font color=&quot;#0000ff&quot;&gt;&lt;b&gt;Message&lt;/b&gt;&lt;/font&gt;&lt;/div&gt;&lt;table style=&quot;width:100%;font-size:1em;&quot; cellpadding=&quot;2&quot; cellspacing=&quot;0&quot;&gt;&lt;tbody&gt;&lt;tr&gt;&lt;td&gt;&lt;font color=&quot;#0000ff&quot;&gt;PK&lt;/font&gt;&lt;/td&gt;&lt;td&gt;&lt;font color=&quot;#0000ff&quot;&gt;id&lt;/font&gt;&lt;/td&gt;&lt;/tr&gt;&lt;tr&gt;&lt;td&gt;&lt;font color=&quot;#0000ff&quot;&gt;FK&lt;/font&gt;&lt;/td&gt;&lt;td&gt;&lt;font color=&quot;#0000ff&quot;&gt;topicID&lt;/font&gt;&lt;/td&gt;&lt;/tr&gt;&lt;tr&gt;&lt;td&gt;&lt;span style=&quot;color: rgb(0, 0, 255);&quot;&gt;usernick&lt;/span&gt;&lt;br&gt;&lt;/td&gt;&lt;td&gt;&lt;font color=&quot;#0000ff&quot;&gt;string(20)&lt;/font&gt;&lt;/td&gt;&lt;/tr&gt;&lt;tr&gt;&lt;td&gt;&lt;font color=&quot;#0000ff&quot;&gt;messagetext&lt;/font&gt;&lt;/td&gt;&lt;td&gt;&lt;span style=&quot;color: rgb(0, 0, 255);&quot;&gt;string(200)&lt;/span&gt;&lt;br&gt;&lt;/td&gt;&lt;/tr&gt;&lt;tr&gt;&lt;td&gt;&lt;font color=&quot;#0000ff&quot;&gt;FK&lt;/font&gt;&lt;/td&gt;&lt;td&gt;&lt;font color=&quot;#0000ff&quot;&gt;replyID&lt;/font&gt;&lt;/td&gt;&lt;/tr&gt;&lt;tr&gt;&lt;td&gt;&lt;br&gt;&lt;/td&gt;&lt;td&gt;&lt;br&gt;&lt;/td&gt;&lt;/tr&gt;&lt;tr&gt;&lt;td&gt;&lt;br&gt;&lt;/td&gt;&lt;td&gt;&lt;br&gt;&lt;/td&gt;&lt;/tr&gt;&lt;tr&gt;&lt;td&gt;&lt;br&gt;&lt;/td&gt;&lt;td&gt;&lt;br&gt;&lt;/td&gt;&lt;/tr&gt;&lt;/tbody&gt;&lt;/table&gt;" style="verticalAlign=top;align=left;overflow=fill;html=1;fillColor=#bac8d3;strokeColor=#23445d;" vertex="1" parent="1">
                    <mxGeometry x="563" y="470" width="180" height="120" as="geometry"/>
                </mxCell>
                <mxCell id="17" value="" style="endArrow=open;html=1;endSize=12;startArrow=diamondThin;startSize=14;startFill=0;edgeStyle=orthogonalEdgeStyle;fontColor=#0000FF;strokeColor=#000066;entryX=1;entryY=0.25;entryDx=0;entryDy=0;exitX=1;exitY=0.337;exitDx=0;exitDy=0;exitPerimeter=0;" edge="1" parent="1" source="16">
                    <mxGeometry x="0.1783" relative="1" as="geometry">
                        <mxPoint x="770" y="410" as="sourcePoint"/>
                        <mxPoint x="495" y="350" as="targetPoint"/>
                        <Array as="points">
                            <mxPoint x="770" y="510"/>
                            <mxPoint x="770" y="350"/>
                        </Array>
                        <mxPoint as="offset"/>
                    </mxGeometry>
                </mxCell>
                <mxCell id="18" value="&lt;font color=&quot;#ffffff&quot; style=&quot;font-size: 14px;&quot;&gt;0..n&lt;/font&gt;" style="edgeLabel;resizable=0;html=1;align=left;verticalAlign=top;fontColor=#0000FF;" connectable="0" vertex="1" parent="17">
                    <mxGeometry x="-1" relative="1" as="geometry">
                        <mxPoint x="7" as="offset"/>
                    </mxGeometry>
                </mxCell>
                <mxCell id="19" value="&lt;font color=&quot;#cce5ff&quot; style=&quot;font-size: 14px;&quot;&gt;0..1&lt;/font&gt;" style="edgeLabel;resizable=0;html=1;align=right;verticalAlign=top;fontColor=#0000FF;" connectable="0" vertex="1" parent="17">
                    <mxGeometry x="1" relative="1" as="geometry">
                        <mxPoint x="25" y="-30" as="offset"/>
                    </mxGeometry>
                </mxCell>
                <mxCell id="20" value="&lt;div style=&quot;box-sizing:border-box;width:100%;background:#e4e4e4;padding:2px;&quot;&gt;&lt;font color=&quot;#0000ff&quot;&gt;&lt;b&gt;Reply&lt;/b&gt;&lt;/font&gt;&lt;/div&gt;&lt;table style=&quot;width:100%;font-size:1em;&quot; cellpadding=&quot;2&quot; cellspacing=&quot;0&quot;&gt;&lt;tbody&gt;&lt;tr&gt;&lt;td&gt;&lt;font color=&quot;#0000ff&quot;&gt;PK&lt;/font&gt;&lt;/td&gt;&lt;td&gt;&lt;font color=&quot;#0000ff&quot;&gt;id&lt;/font&gt;&lt;/td&gt;&lt;/tr&gt;&lt;tr&gt;&lt;td&gt;&lt;font color=&quot;#0000ff&quot;&gt;FK&lt;/font&gt;&lt;/td&gt;&lt;td&gt;&lt;font color=&quot;#0000ff&quot;&gt;parentMessageID&lt;/font&gt;&lt;/td&gt;&lt;/tr&gt;&lt;/tbody&gt;&lt;/table&gt;" style="verticalAlign=top;align=left;overflow=fill;html=1;fillColor=#bac8d3;strokeColor=#23445d;" vertex="1" parent="1">
                    <mxGeometry x="328" y="644" width="132" height="56" as="geometry"/>
                </mxCell>
                <mxCell id="24" value="" style="endArrow=open;html=1;endSize=12;startArrow=diamondThin;startSize=14;startFill=0;edgeStyle=orthogonalEdgeStyle;fontColor=#0000FF;strokeColor=#000066;" edge="1" parent="1">
                    <mxGeometry x="0.1783" relative="1" as="geometry">
                        <mxPoint x="563" y="577.9696969696971" as="sourcePoint"/>
                        <mxPoint x="460" y="666" as="targetPoint"/>
                        <Array as="points">
                            <mxPoint x="510" y="578"/>
                            <mxPoint x="510" y="666"/>
                        </Array>
                        <mxPoint as="offset"/>
                    </mxGeometry>
                </mxCell>
                <mxCell id="25" value="&lt;font color=&quot;#ffffff&quot; style=&quot;font-size: 14px;&quot;&gt;1..n&lt;/font&gt;" style="edgeLabel;resizable=0;html=1;align=left;verticalAlign=top;fontColor=#0000FF;" connectable="0" vertex="1" parent="24">
                    <mxGeometry x="-1" relative="1" as="geometry">
                        <mxPoint x="-36" y="-35" as="offset"/>
                    </mxGeometry>
                </mxCell>
                <mxCell id="26" value="&lt;font color=&quot;#cce5ff&quot; style=&quot;font-size: 14px;&quot;&gt;0..1&lt;/font&gt;" style="edgeLabel;resizable=0;html=1;align=right;verticalAlign=top;fontColor=#0000FF;" connectable="0" vertex="1" parent="24">
                    <mxGeometry x="1" relative="1" as="geometry">
                        <mxPoint x="30" y="-39" as="offset"/>
                    </mxGeometry>
                </mxCell>
                <mxCell id="27" value="" style="endArrow=open;html=1;endSize=12;startArrow=diamondThin;startSize=14;startFill=0;edgeStyle=orthogonalEdgeStyle;fontColor=#0000FF;strokeColor=#000066;entryX=0;entryY=0.206;entryDx=0;entryDy=0;entryPerimeter=0;exitX=0;exitY=0.75;exitDx=0;exitDy=0;" edge="1" parent="1" source="20" target="16">
                    <mxGeometry x="0.1783" relative="1" as="geometry">
                        <mxPoint x="320" y="690" as="sourcePoint"/>
                        <mxPoint x="500" y="501" as="targetPoint"/>
                        <Array as="points">
                            <mxPoint x="290" y="686"/>
                            <mxPoint x="290" y="495"/>
                        </Array>
                        <mxPoint as="offset"/>
                    </mxGeometry>
                </mxCell>
                <mxCell id="28" value="&lt;font color=&quot;#ffffff&quot; style=&quot;font-size: 14px;&quot;&gt;0..1&lt;/font&gt;" style="edgeLabel;resizable=0;html=1;align=left;verticalAlign=top;fontColor=#0000FF;" connectable="0" vertex="1" parent="27">
                    <mxGeometry x="-1" relative="1" as="geometry">
                        <mxPoint x="-29" y="-33" as="offset"/>
                    </mxGeometry>
                </mxCell>
                <mxCell id="29" value="&lt;font color=&quot;#cce5ff&quot; style=&quot;font-size: 14px;&quot;&gt;1&lt;/font&gt;" style="edgeLabel;resizable=0;html=1;align=right;verticalAlign=top;fontColor=#0000FF;" connectable="0" vertex="1" parent="27">
                    <mxGeometry x="1" relative="1" as="geometry">
                        <mxPoint x="-7" y="-31" as="offset"/>
                    </mxGeometry>
                </mxCell>
            </root>
        </mxGraphModel>
    </diagram>
</mxfile>
